<svg id="Layer_1_1_" enable-background="new 0 0 96 96" height="512" viewBox="0 0 96 96" width="512" xmlns="http://www.w3.org/2000/svg"><path d="m93.775 35c-.329-1.086-.64-2.179-.917-3.282-4.141-16.498-19.068-28.714-36.85-28.718-.003.003-.005.005-.008.008v12.992h-.193c-1.043 0-2.022-.401-2.859-1.022-1.052-.781-2.416-1.16-3.882-.892-1.95.357-3.551 1.902-3.954 3.843-.671 3.229 1.777 6.071 4.888 6.071 1.121 0 2.149-.374 2.978-1 .821-.62 1.796-1 2.825-1h.197v13z" fill="#63b2b9"/><path d="m41 39v-13h-.193c-1.043 0-2.022.401-2.859 1.022-1.052.781-2.416 1.16-3.882.892-1.95-.357-3.551-1.902-3.954-3.843-.671-3.229 1.777-6.071 4.888-6.071 1.121 0 2.149.374 2.978 1 .821.62 1.796 1 2.825 1h.197v-12.992c-20.305.005-37.285 16.33-37.977 36.666-.342 10.055 3.226 19.27 9.299 26.249 5.451 6.265 8.678 14.155 8.678 22.46v.617h36v-10h18c2.209 0 4-1.791 4-4v-16h6.87c1.107 0 2.182-.543 2.726-1.508.612-1.087.505-2.352-.16-3.282l-1.228-1.72c-3.796-5.314-6.545-11.252-8.433-17.49z" fill="#63b2b9"/><path d="m75 18c0-3.866-3.134-7-7-7s-7 3.134-7 7c0 2.791 1.637 5.193 4 6.317v2.683h6v-2.683c2.363-1.124 4-3.526 4-6.317z" fill="#f9be3c"/><path d="m44.92 52.89c.05.49.08.99.08 1.5s-.03 1.01-.08 1.51l-3.13.78c-.21 1.19-.59 2.33-1.11 3.38l2.08 2.47c-.52.87-1.11 1.69-1.78 2.44l-2.98-1.21c-.86.82-1.82 1.54-2.88 2.1l.23 3.22c-.91.39-1.87.7-2.86.92l-1.71-2.74c-.58.08-1.17.13-1.78.13s-1.2-.05-1.78-.13l-1.71 2.74c-.99-.22-1.95-.53-2.86-.92l.23-3.22c-1.06-.56-2.02-1.28-2.88-2.1l-2.98 1.21c-.67-.76-1.26-1.57-1.78-2.44l2.08-2.47c-.52-1.05-.9-2.19-1.11-3.39l-3.13-.77c-.05-.5-.08-1-.08-1.51s.03-1.01.08-1.5l3.13-.78c.21-1.19.59-2.33 1.11-3.39l-2.08-2.46c.52-.87 1.11-1.69 1.78-2.44l2.98 1.21c.86-.83 1.82-1.54 2.88-2.11l-.23-3.21c.91-.4 1.87-.7 2.86-.92l1.71 2.74c.58-.08 1.17-.14 1.78-.14s1.2.06 1.78.14l1.71-2.74c.99.22 1.95.52 2.86.92l-.23 3.21c1.06.57 2.02 1.28 2.88 2.11l2.98-1.21c.67.75 1.26 1.57 1.78 2.44l-2.08 2.46c.52 1.06.9 2.2 1.11 3.39z" fill="#e6646e"/><circle cx="29" cy="54.395" fill="#b4505a" r="10"/><circle cx="29" cy="54.395" fill="#e6e6e6" r="8"/><path d="m58 84h-5c-.553 0-1-.447-1-1s.447-1 1-1h5c.553 0 1 .447 1 1s-.447 1-1 1z" fill="#50a3ab"/><circle cx="49" cy="83" fill="#50a3ab" r="1"/><circle cx="45" cy="83" fill="#50a3ab" r="1"/><circle cx="41" cy="83" fill="#50a3ab" r="1"/><path d="m79 72h-8c-2.757 0-5-2.243-5-5v-1c0-.553.447-1 1-1s1 .447 1 1v1c0 1.654 1.346 3 3 3h8c.553 0 1 .447 1 1s-.447 1-1 1z" fill="#8c645a"/><path d="m64 51.924c-2.817 0-5.634-1.072-7.778-3.217-.391-.391-.391-1.023 0-1.414s1.023-.391 1.414 0c3.51 3.51 9.219 3.51 12.729 0 .391-.391 1.023-.391 1.414 0s.391 1.023 0 1.414c-2.145 2.145-4.962 3.217-7.779 3.217z" fill="#8c645a"/><path d="m29 55.607c-.228 0-.455-.077-.641-.231l-6-5c-.424-.354-.481-.984-.128-1.409.354-.424.982-.48 1.409-.128l5.36 4.467 5.359-4.467c.426-.353 1.056-.296 1.409.128.354.425.296 1.056-.128 1.409l-6 5c-.185.154-.412.231-.64.231z" fill="#e6646e"/><path d="m29 63.607c-.553 0-1-.447-1-1v-8c0-.553.447-1 1-1s1 .447 1 1v8c0 .553-.447 1-1 1z" fill="#e6646e"/><g fill="#50a3ab"><path d="m16 39c-.553 0-1-.447-1-1v-8c0-.553.447-1 1-1s1 .447 1 1v8c0 .553-.447 1-1 1z"/><path d="m21 37c-.553 0-1-.447-1-1v-8c0-.553.447-1 1-1s1 .447 1 1v8c0 .553-.447 1-1 1z"/><path d="m26 35c-.553 0-1-.447-1-1v-8c0-.553.447-1 1-1s1 .447 1 1v8c0 .553-.447 1-1 1z"/><path d="m57 62h-8c-.553 0-1-.447-1-1s.447-1 1-1h8c.553 0 1 .447 1 1s-.447 1-1 1z"/><path d="m54 67h-8c-.553 0-1-.447-1-1s.447-1 1-1h8c.553 0 1 .447 1 1s-.447 1-1 1z"/><path d="m51 72h-8c-.553 0-1-.447-1-1s.447-1 1-1h8c.553 0 1 .447 1 1s-.447 1-1 1z"/><circle cx="26" cy="22" r="1"/><circle cx="21" cy="24" r="1"/><circle cx="16" cy="26" r="1"/><circle cx="61" cy="61" r="1"/><circle cx="58" cy="66" r="1"/><circle cx="55" cy="71" r="1"/></g><path d="m71 32h-6c-.553 0-1-.447-1-1s.447-1 1-1h6c.553 0 1 .447 1 1s-.447 1-1 1z" fill="#f9be3c"/><path d="m68 19c-.256 0-.512-.098-.707-.293l-2-2c-.391-.391-.391-1.023 0-1.414s1.023-.391 1.414 0l1.293 1.293 1.293-1.293c.391-.391 1.023-.391 1.414 0s.391 1.023 0 1.414l-2 2c-.195.195-.451.293-.707.293z" fill="#e6e6e6"/><path d="m68 23c-.553 0-1-.447-1-1v-4c0-.553.447-1 1-1s1 .447 1 1v4c0 .553-.447 1-1 1z" fill="#e6e6e6"/></svg>